# xmcd
#
# Track frame offsets:
# 150
# 20937
# 44270
# 60064
# 82796
# 101392
# 121439
# 137293
# 154576
# 171931
# 193555
# 210049
#
# Disc length: 2949 seconds
#
#
# Revision: 0
# Processed by: cddbd v1.5.1PL0 Copyright (c) Steve Scherf et al.
# Submitted via: FreeRIP 2.90 
#
DISCID=870b830c
DTITLE=Thomas Lang - Versions
DYEAR=1900
DGENRE=Blues
TTITLE0=Love TKO
TTITLE1=You'll Never Know
TTITLE2=If I'd Never Known You
TTITLE3=Use Me
TTITLE4=Don't Let Me Be Misunderstood
TTITLE5=God Bless The Child
TTITLE6=Rain
TTITLE7=Wild Strawberries
TTITLE8=San Diego Seranade
TTITLE9=(If Loving You is Wrong)I Don't Want to be Right
TTITLE10=Blame it on the Sun
TTITLE11=I Fell in Love with the Moon
EXTD=
EXTT0=
EXTT1=
EXTT2=
EXTT3=
EXTT4=
EXTT5=
EXTT6=
EXTT7=
EXTT8=
EXTT9=
EXTT10=
EXTT11=
PLAYORDER=
